<?xml version="1.0" encoding="utf-8"?>
<svg width="424" height="424" viewBox="0 0 424 424"
		 xmlns="http://www.w3.org/2000/svg" xmlns:xlink="http://www.w3.org/1999/xlink" xmlns:ev="http://www.w3.org/2001/xml-events">
<rect x="0" y="0" width="424" height="424" fill="transparent"/>
<defs>
<rect id="p" width="8" height="8"/>
</defs>
<g fill="#000000">
<use xlink:href="#p" x="32" y="32"/>
<use xlink:href="#p" x="32" y="40"/>
<use xlink:href="#p" x="32" y="48"/>
<use xlink:href="#p" x="32" y="56"/>
<use xlink:href="#p" x="32" y="64"/>
<use xlink:href="#p" x="32" y="72"/>
<use xlink:href="#p" x="32" y="80"/>
<use xlink:href="#p" x="32" y="96"/>
<use xlink:href="#p" x="32" y="104"/>
<use xlink:href="#p" x="32" y="112"/>
<use xlink:href="#p" x="32" y="120"/>
<use xlink:href="#p" x="32" y="128"/>
<use xlink:href="#p" x="32" y="136"/>
<use xlink:href="#p" x="32" y="160"/>
<use xlink:href="#p" x="32" y="168"/>
<use xlink:href="#p" x="32" y="240"/>
<use xlink:href="#p" x="32" y="248"/>
<use xlink:href="#p" x="32" y="264"/>
<use xlink:href="#p" x="32" y="296"/>
<use xlink:href="#p" x="32" y="320"/>
<use xlink:href="#p" x="32" y="336"/>
<use xlink:href="#p" x="32" y="344"/>
<use xlink:href="#p" x="32" y="352"/>
<use xlink:href="#p" x="32" y="360"/>
<use xlink:href="#p" x="32" y="368"/>
<use xlink:href="#p" x="32" y="376"/>
<use xlink:href="#p" x="32" y="384"/>
<use xlink:href="#p" x="40" y="32"/>
<use xlink:href="#p" x="40" y="80"/>
<use xlink:href="#p" x="40" y="96"/>
<use xlink:href="#p" x="40" y="120"/>
<use xlink:href="#p" x="40" y="128"/>
<use xlink:href="#p" x="40" y="136"/>
<use xlink:href="#p" x="40" y="152"/>
<use xlink:href="#p" x="40" y="192"/>
<use xlink:href="#p" x="40" y="208"/>
<use xlink:href="#p" x="40" y="216"/>
<use xlink:href="#p" x="40" y="232"/>
<use xlink:href="#p" x="40" y="248"/>
<use xlink:href="#p" x="40" y="280"/>
<use xlink:href="#p" x="40" y="312"/>
<use xlink:href="#p" x="40" y="336"/>
<use xlink:href="#p" x="40" y="384"/>
<use xlink:href="#p" x="48" y="32"/>
<use xlink:href="#p" x="48" y="48"/>
<use xlink:href="#p" x="48" y="56"/>
<use xlink:href="#p" x="48" y="64"/>
<use xlink:href="#p" x="48" y="80"/>
<use xlink:href="#p" x="48" y="96"/>
<use xlink:href="#p" x="48" y="104"/>
<use xlink:href="#p" x="48" y="112"/>
<use xlink:href="#p" x="48" y="120"/>
<use xlink:href="#p" x="48" y="128"/>
<use xlink:href="#p" x="48" y="144"/>
<use xlink:href="#p" x="48" y="160"/>
<use xlink:href="#p" x="48" y="168"/>
<use xlink:href="#p" x="48" y="176"/>
<use xlink:href="#p" x="48" y="192"/>
<use xlink:href="#p" x="48" y="224"/>
<use xlink:href="#p" x="48" y="232"/>
<use xlink:href="#p" x="48" y="240"/>
<use xlink:href="#p" x="48" y="256"/>
<use xlink:href="#p" x="48" y="264"/>
<use xlink:href="#p" x="48" y="272"/>
<use xlink:href="#p" x="48" y="280"/>
<use xlink:href="#p" x="48" y="288"/>
<use xlink:href="#p" x="48" y="312"/>
<use xlink:href="#p" x="48" y="336"/>
<use xlink:href="#p" x="48" y="352"/>
<use xlink:href="#p" x="48" y="360"/>
<use xlink:href="#p" x="48" y="368"/>
<use xlink:href="#p" x="48" y="384"/>
<use xlink:href="#p" x="56" y="32"/>
<use xlink:href="#p" x="56" y="48"/>
<use xlink:href="#p" x="56" y="56"/>
<use xlink:href="#p" x="56" y="64"/>
<use xlink:href="#p" x="56" y="80"/>
<use xlink:href="#p" x="56" y="96"/>
<use xlink:href="#p" x="56" y="120"/>
<use xlink:href="#p" x="56" y="184"/>
<use xlink:href="#p" x="56" y="200"/>
<use xlink:href="#p" x="56" y="232"/>
<use xlink:href="#p" x="56" y="248"/>
<use xlink:href="#p" x="56" y="264"/>
<use xlink:href="#p" x="56" y="272"/>
<use xlink:href="#p" x="56" y="280"/>
<use xlink:href="#p" x="56" y="288"/>
<use xlink:href="#p" x="56" y="312"/>
<use xlink:href="#p" x="56" y="320"/>
<use xlink:href="#p" x="56" y="336"/>
<use xlink:href="#p" x="56" y="352"/>
<use xlink:href="#p" x="56" y="360"/>
<use xlink:href="#p" x="56" y="368"/>
<use xlink:href="#p" x="56" y="384"/>
<use xlink:href="#p" x="64" y="32"/>
<use xlink:href="#p" x="64" y="48"/>
<use xlink:href="#p" x="64" y="56"/>
<use xlink:href="#p" x="64" y="64"/>
<use xlink:href="#p" x="64" y="80"/>
<use xlink:href="#p" x="64" y="112"/>
<use xlink:href="#p" x="64" y="128"/>
<use xlink:href="#p" x="64" y="136"/>
<use xlink:href="#p" x="64" y="144"/>
<use xlink:href="#p" x="64" y="160"/>
<use xlink:href="#p" x="64" y="192"/>
<use xlink:href="#p" x="64" y="200"/>
<use xlink:href="#p" x="64" y="208"/>
<use xlink:href="#p" x="64" y="216"/>
<use xlink:href="#p" x="64" y="224"/>
<use xlink:href="#p" x="64" y="232"/>
<use xlink:href="#p" x="64" y="240"/>
<use xlink:href="#p" x="64" y="248"/>
<use xlink:href="#p" x="64" y="264"/>
<use xlink:href="#p" x="64" y="280"/>
<use xlink:href="#p" x="64" y="288"/>
<use xlink:href="#p" x="64" y="296"/>
<use xlink:href="#p" x="64" y="304"/>
<use xlink:href="#p" x="64" y="312"/>
<use xlink:href="#p" x="64" y="320"/>
<use xlink:href="#p" x="64" y="336"/>
<use xlink:href="#p" x="64" y="352"/>
<use xlink:href="#p" x="64" y="360"/>
<use xlink:href="#p" x="64" y="368"/>
<use xlink:href="#p" x="64" y="384"/>
<use xlink:href="#p" x="72" y="32"/>
<use xlink:href="#p" x="72" y="80"/>
<use xlink:href="#p" x="72" y="104"/>
<use xlink:href="#p" x="72" y="120"/>
<use xlink:href="#p" x="72" y="144"/>
<use xlink:href="#p" x="72" y="152"/>
<use xlink:href="#p" x="72" y="160"/>
<use xlink:href="#p" x="72" y="192"/>
<use xlink:href="#p" x="72" y="224"/>
<use xlink:href="#p" x="72" y="240"/>
<use xlink:href="#p" x="72" y="256"/>
<use xlink:href="#p" x="72" y="264"/>
<use xlink:href="#p" x="72" y="336"/>
<use xlink:href="#p" x="72" y="384"/>
<use xlink:href="#p" x="80" y="32"/>
<use xlink:href="#p" x="80" y="40"/>
<use xlink:href="#p" x="80" y="48"/>
<use xlink:href="#p" x="80" y="56"/>
<use xlink:href="#p" x="80" y="64"/>
<use xlink:href="#p" x="80" y="72"/>
<use xlink:href="#p" x="80" y="80"/>
<use xlink:href="#p" x="80" y="96"/>
<use xlink:href="#p" x="80" y="112"/>
<use xlink:href="#p" x="80" y="128"/>
<use xlink:href="#p" x="80" y="144"/>
<use xlink:href="#p" x="80" y="160"/>
<use xlink:href="#p" x="80" y="176"/>
<use xlink:href="#p" x="80" y="192"/>
<use xlink:href="#p" x="80" y="208"/>
<use xlink:href="#p" x="80" y="224"/>
<use xlink:href="#p" x="80" y="240"/>
<use xlink:href="#p" x="80" y="256"/>
<use xlink:href="#p" x="80" y="272"/>
<use xlink:href="#p" x="80" y="288"/>
<use xlink:href="#p" x="80" y="304"/>
<use xlink:href="#p" x="80" y="320"/>
<use xlink:href="#p" x="80" y="336"/>
<use xlink:href="#p" x="80" y="344"/>
<use xlink:href="#p" x="80" y="352"/>
<use xlink:href="#p" x="80" y="360"/>
<use xlink:href="#p" x="80" y="368"/>
<use xlink:href="#p" x="80" y="376"/>
<use xlink:href="#p" x="80" y="384"/>
<use xlink:href="#p" x="88" y="104"/>
<use xlink:href="#p" x="88" y="112"/>
<use xlink:href="#p" x="88" y="120"/>
<use xlink:href="#p" x="88" y="144"/>
<use xlink:href="#p" x="88" y="152"/>
<use xlink:href="#p" x="88" y="184"/>
<use xlink:href="#p" x="88" y="192"/>
<use xlink:href="#p" x="88" y="224"/>
<use xlink:href="#p" x="88" y="248"/>
<use xlink:href="#p" x="88" y="272"/>
<use xlink:href="#p" x="88" y="280"/>
<use xlink:href="#p" x="88" y="288"/>
<use xlink:href="#p" x="88" y="312"/>
<use xlink:href="#p" x="88" y="320"/>
<use xlink:href="#p" x="96" y="32"/>
<use xlink:href="#p" x="96" y="48"/>
<use xlink:href="#p" x="96" y="56"/>
<use xlink:href="#p" x="96" y="64"/>
<use xlink:href="#p" x="96" y="80"/>
<use xlink:href="#p" x="96" y="96"/>
<use xlink:href="#p" x="96" y="104"/>
<use xlink:href="#p" x="96" y="120"/>
<use xlink:href="#p" x="96" y="144"/>
<use xlink:href="#p" x="96" y="152"/>
<use xlink:href="#p" x="96" y="160"/>
<use xlink:href="#p" x="96" y="168"/>
<use xlink:href="#p" x="96" y="192"/>
<use xlink:href="#p" x="96" y="200"/>
<use xlink:href="#p" x="96" y="208"/>
<use xlink:href="#p" x="96" y="216"/>
<use xlink:href="#p" x="96" y="224"/>
<use xlink:href="#p" x="96" y="232"/>
<use xlink:href="#p" x="96" y="240"/>
<use xlink:href="#p" x="96" y="248"/>
<use xlink:href="#p" x="96" y="272"/>
<use xlink:href="#p" x="96" y="296"/>
<use xlink:href="#p" x="96" y="320"/>
<use xlink:href="#p" x="96" y="328"/>
<use xlink:href="#p" x="96" y="360"/>
<use xlink:href="#p" x="96" y="368"/>
<use xlink:href="#p" x="96" y="376"/>
<use xlink:href="#p" x="96" y="384"/>
<use xlink:href="#p" x="104" y="48"/>
<use xlink:href="#p" x="104" y="56"/>
<use xlink:href="#p" x="104" y="112"/>
<use xlink:href="#p" x="104" y="120"/>
<use xlink:href="#p" x="104" y="136"/>
<use xlink:href="#p" x="104" y="144"/>
<use xlink:href="#p" x="104" y="168"/>
<use xlink:href="#p" x="104" y="184"/>
<use xlink:href="#p" x="104" y="200"/>
<use xlink:href="#p" x="104" y="208"/>
<use xlink:href="#p" x="104" y="216"/>
<use xlink:href="#p" x="104" y="224"/>
<use xlink:href="#p" x="104" y="240"/>
<use xlink:href="#p" x="104" y="248"/>
<use xlink:href="#p" x="104" y="256"/>
<use xlink:href="#p" x="104" y="264"/>
<use xlink:href="#p" x="104" y="280"/>
<use xlink:href="#p" x="104" y="288"/>
<use xlink:href="#p" x="104" y="320"/>
<use xlink:href="#p" x="104" y="344"/>
<use xlink:href="#p" x="104" y="376"/>
<use xlink:href="#p" x="104" y="384"/>
<use xlink:href="#p" x="112" y="32"/>
<use xlink:href="#p" x="112" y="40"/>
<use xlink:href="#p" x="112" y="48"/>
<use xlink:href="#p" x="112" y="80"/>
<use xlink:href="#p" x="112" y="96"/>
<use xlink:href="#p" x="112" y="120"/>
<use xlink:href="#p" x="112" y="168"/>
<use xlink:href="#p" x="112" y="176"/>
<use xlink:href="#p" x="112" y="184"/>
<use xlink:href="#p" x="112" y="200"/>
<use xlink:href="#p" x="112" y="208"/>
<use xlink:href="#p" x="112" y="216"/>
<use xlink:href="#p" x="112" y="232"/>
<use xlink:href="#p" x="112" y="240"/>
<use xlink:href="#p" x="112" y="248"/>
<use xlink:href="#p" x="112" y="264"/>
<use xlink:href="#p" x="112" y="272"/>
<use xlink:href="#p" x="112" y="280"/>
<use xlink:href="#p" x="112" y="320"/>
<use xlink:href="#p" x="112" y="344"/>
<use xlink:href="#p" x="112" y="352"/>
<use xlink:href="#p" x="112" y="360"/>
<use xlink:href="#p" x="112" y="368"/>
<use xlink:href="#p" x="112" y="384"/>
<use xlink:href="#p" x="120" y="32"/>
<use xlink:href="#p" x="120" y="56"/>
<use xlink:href="#p" x="120" y="88"/>
<use xlink:href="#p" x="120" y="120"/>
<use xlink:href="#p" x="120" y="128"/>
<use xlink:href="#p" x="120" y="136"/>
<use xlink:href="#p" x="120" y="144"/>
<use xlink:href="#p" x="120" y="176"/>
<use xlink:href="#p" x="120" y="216"/>
<use xlink:href="#p" x="120" y="232"/>
<use xlink:href="#p" x="120" y="240"/>
<use xlink:href="#p" x="120" y="280"/>
<use xlink:href="#p" x="120" y="296"/>
<use xlink:href="#p" x="120" y="312"/>
<use xlink:href="#p" x="120" y="320"/>
<use xlink:href="#p" x="120" y="328"/>
<use xlink:href="#p" x="120" y="368"/>
<use xlink:href="#p" x="120" y="384"/>
<use xlink:href="#p" x="128" y="32"/>
<use xlink:href="#p" x="128" y="56"/>
<use xlink:href="#p" x="128" y="72"/>
<use xlink:href="#p" x="128" y="80"/>
<use xlink:href="#p" x="128" y="88"/>
<use xlink:href="#p" x="128" y="96"/>
<use xlink:href="#p" x="128" y="112"/>
<use xlink:href="#p" x="128" y="200"/>
<use xlink:href="#p" x="128" y="208"/>
<use xlink:href="#p" x="128" y="224"/>
<use xlink:href="#p" x="128" y="248"/>
<use xlink:href="#p" x="128" y="256"/>
<use xlink:href="#p" x="128" y="272"/>
<use xlink:href="#p" x="128" y="296"/>
<use xlink:href="#p" x="128" y="344"/>
<use xlink:href="#p" x="128" y="352"/>
<use xlink:href="#p" x="128" y="384"/>
<use xlink:href="#p" x="136" y="32"/>
<use xlink:href="#p" x="136" y="40"/>
<use xlink:href="#p" x="136" y="64"/>
<use xlink:href="#p" x="136" y="96"/>
<use xlink:href="#p" x="136" y="104"/>
<use xlink:href="#p" x="136" y="120"/>
<use xlink:href="#p" x="136" y="136"/>
<use xlink:href="#p" x="136" y="144"/>
<use xlink:href="#p" x="136" y="152"/>
<use xlink:href="#p" x="136" y="192"/>
<use xlink:href="#p" x="136" y="200"/>
<use xlink:href="#p" x="136" y="216"/>
<use xlink:href="#p" x="136" y="232"/>
<use xlink:href="#p" x="136" y="272"/>
<use xlink:href="#p" x="136" y="312"/>
<use xlink:href="#p" x="136" y="328"/>
<use xlink:href="#p" x="136" y="336"/>
<use xlink:href="#p" x="136" y="344"/>
<use xlink:href="#p" x="136" y="384"/>
<use xlink:href="#p" x="144" y="32"/>
<use xlink:href="#p" x="144" y="40"/>
<use xlink:href="#p" x="144" y="80"/>
<use xlink:href="#p" x="144" y="104"/>
<use xlink:href="#p" x="144" y="112"/>
<use xlink:href="#p" x="144" y="120"/>
<use xlink:href="#p" x="144" y="152"/>
<use xlink:href="#p" x="144" y="160"/>
<use xlink:href="#p" x="144" y="168"/>
<use xlink:href="#p" x="144" y="184"/>
<use xlink:href="#p" x="144" y="200"/>
<use xlink:href="#p" x="144" y="208"/>
<use xlink:href="#p" x="144" y="256"/>
<use xlink:href="#p" x="144" y="264"/>
<use xlink:href="#p" x="144" y="280"/>
<use xlink:href="#p" x="144" y="304"/>
<use xlink:href="#p" x="144" y="352"/>
<use xlink:href="#p" x="144" y="360"/>
<use xlink:href="#p" x="144" y="376"/>
<use xlink:href="#p" x="152" y="32"/>
<use xlink:href="#p" x="152" y="72"/>
<use xlink:href="#p" x="152" y="104"/>
<use xlink:href="#p" x="152" y="128"/>
<use xlink:href="#p" x="152" y="136"/>
<use xlink:href="#p" x="152" y="152"/>
<use xlink:href="#p" x="152" y="176"/>
<use xlink:href="#p" x="152" y="192"/>
<use xlink:href="#p" x="152" y="200"/>
<use xlink:href="#p" x="152" y="208"/>
<use xlink:href="#p" x="152" y="224"/>
<use xlink:href="#p" x="152" y="240"/>
<use xlink:href="#p" x="152" y="248"/>
<use xlink:href="#p" x="152" y="256"/>
<use xlink:href="#p" x="152" y="280"/>
<use xlink:href="#p" x="152" y="288"/>
<use xlink:href="#p" x="152" y="296"/>
<use xlink:href="#p" x="152" y="344"/>
<use xlink:href="#p" x="152" y="352"/>
<use xlink:href="#p" x="152" y="376"/>
<use xlink:href="#p" x="160" y="40"/>
<use xlink:href="#p" x="160" y="56"/>
<use xlink:href="#p" x="160" y="72"/>
<use xlink:href="#p" x="160" y="80"/>
<use xlink:href="#p" x="160" y="112"/>
<use xlink:href="#p" x="160" y="128"/>
<use xlink:href="#p" x="160" y="160"/>
<use xlink:href="#p" x="160" y="168"/>
<use xlink:href="#p" x="160" y="176"/>
<use xlink:href="#p" x="160" y="184"/>
<use xlink:href="#p" x="160" y="216"/>
<use xlink:href="#p" x="160" y="224"/>
<use xlink:href="#p" x="160" y="256"/>
<use xlink:href="#p" x="160" y="264"/>
<use xlink:href="#p" x="160" y="272"/>
<use xlink:href="#p" x="160" y="312"/>
<use xlink:href="#p" x="160" y="320"/>
<use xlink:href="#p" x="160" y="352"/>
<use xlink:href="#p" x="160" y="360"/>
<use xlink:href="#p" x="168" y="32"/>
<use xlink:href="#p" x="168" y="72"/>
<use xlink:href="#p" x="168" y="88"/>
<use xlink:href="#p" x="168" y="104"/>
<use xlink:href="#p" x="168" y="112"/>
<use xlink:href="#p" x="168" y="128"/>
<use xlink:href="#p" x="168" y="136"/>
<use xlink:href="#p" x="168" y="160"/>
<use xlink:href="#p" x="168" y="168"/>
<use xlink:href="#p" x="168" y="200"/>
<use xlink:href="#p" x="168" y="208"/>
<use xlink:href="#p" x="168" y="240"/>
<use xlink:href="#p" x="168" y="272"/>
<use xlink:href="#p" x="168" y="296"/>
<use xlink:href="#p" x="168" y="304"/>
<use xlink:href="#p" x="168" y="312"/>
<use xlink:href="#p" x="168" y="352"/>
<use xlink:href="#p" x="168" y="360"/>
<use xlink:href="#p" x="168" y="368"/>
<use xlink:href="#p" x="168" y="376"/>
<use xlink:href="#p" x="168" y="384"/>
<use xlink:href="#p" x="176" y="48"/>
<use xlink:href="#p" x="176" y="56"/>
<use xlink:href="#p" x="176" y="64"/>
<use xlink:href="#p" x="176" y="80"/>
<use xlink:href="#p" x="176" y="88"/>
<use xlink:href="#p" x="176" y="120"/>
<use xlink:href="#p" x="176" y="128"/>
<use xlink:href="#p" x="176" y="136"/>
<use xlink:href="#p" x="176" y="168"/>
<use xlink:href="#p" x="176" y="176"/>
<use xlink:href="#p" x="176" y="184"/>
<use xlink:href="#p" x="176" y="224"/>
<use xlink:href="#p" x="176" y="232"/>
<use xlink:href="#p" x="176" y="264"/>
<use xlink:href="#p" x="176" y="272"/>
<use xlink:href="#p" x="176" y="280"/>
<use xlink:href="#p" x="176" y="312"/>
<use xlink:href="#p" x="176" y="320"/>
<use xlink:href="#p" x="176" y="328"/>
<use xlink:href="#p" x="176" y="344"/>
<use xlink:href="#p" x="176" y="360"/>
<use xlink:href="#p" x="176" y="368"/>
<use xlink:href="#p" x="184" y="48"/>
<use xlink:href="#p" x="184" y="56"/>
<use xlink:href="#p" x="184" y="72"/>
<use xlink:href="#p" x="184" y="88"/>
<use xlink:href="#p" x="184" y="112"/>
<use xlink:href="#p" x="184" y="120"/>
<use xlink:href="#p" x="184" y="144"/>
<use xlink:href="#p" x="184" y="152"/>
<use xlink:href="#p" x="184" y="160"/>
<use xlink:href="#p" x="184" y="176"/>
<use xlink:href="#p" x="184" y="192"/>
<use xlink:href="#p" x="184" y="216"/>
<use xlink:href="#p" x="184" y="232"/>
<use xlink:href="#p" x="184" y="240"/>
<use xlink:href="#p" x="184" y="296"/>
<use xlink:href="#p" x="184" y="328"/>
<use xlink:href="#p" x="184" y="360"/>
<use xlink:href="#p" x="184" y="376"/>
<use xlink:href="#p" x="184" y="384"/>
<use xlink:href="#p" x="192" y="40"/>
<use xlink:href="#p" x="192" y="56"/>
<use xlink:href="#p" x="192" y="64"/>
<use xlink:href="#p" x="192" y="72"/>
<use xlink:href="#p" x="192" y="80"/>
<use xlink:href="#p" x="192" y="88"/>
<use xlink:href="#p" x="192" y="96"/>
<use xlink:href="#p" x="192" y="136"/>
<use xlink:href="#p" x="192" y="144"/>
<use xlink:href="#p" x="192" y="160"/>
<use xlink:href="#p" x="192" y="168"/>
<use xlink:href="#p" x="192" y="176"/>
<use xlink:href="#p" x="192" y="184"/>
<use xlink:href="#p" x="192" y="192"/>
<use xlink:href="#p" x="192" y="200"/>
<use xlink:href="#p" x="192" y="208"/>
<use xlink:href="#p" x="192" y="216"/>
<use xlink:href="#p" x="192" y="224"/>
<use xlink:href="#p" x="192" y="232"/>
<use xlink:href="#p" x="192" y="248"/>
<use xlink:href="#p" x="192" y="272"/>
<use xlink:href="#p" x="192" y="280"/>
<use xlink:href="#p" x="192" y="296"/>
<use xlink:href="#p" x="192" y="312"/>
<use xlink:href="#p" x="192" y="320"/>
<use xlink:href="#p" x="192" y="328"/>
<use xlink:href="#p" x="192" y="336"/>
<use xlink:href="#p" x="192" y="344"/>
<use xlink:href="#p" x="192" y="352"/>
<use xlink:href="#p" x="200" y="32"/>
<use xlink:href="#p" x="200" y="64"/>
<use xlink:href="#p" x="200" y="96"/>
<use xlink:href="#p" x="200" y="104"/>
<use xlink:href="#p" x="200" y="128"/>
<use xlink:href="#p" x="200" y="152"/>
<use xlink:href="#p" x="200" y="160"/>
<use xlink:href="#p" x="200" y="168"/>
<use xlink:href="#p" x="200" y="184"/>
<use xlink:href="#p" x="200" y="192"/>
<use xlink:href="#p" x="200" y="224"/>
<use xlink:href="#p" x="200" y="240"/>
<use xlink:href="#p" x="200" y="264"/>
<use xlink:href="#p" x="200" y="272"/>
<use xlink:href="#p" x="200" y="280"/>
<use xlink:href="#p" x="200" y="288"/>
<use xlink:href="#p" x="200" y="296"/>
<use xlink:href="#p" x="200" y="304"/>
<use xlink:href="#p" x="200" y="320"/>
<use xlink:href="#p" x="200" y="352"/>
<use xlink:href="#p" x="200" y="384"/>
<use xlink:href="#p" x="208" y="32"/>
<use xlink:href="#p" x="208" y="48"/>
<use xlink:href="#p" x="208" y="56"/>
<use xlink:href="#p" x="208" y="64"/>
<use xlink:href="#p" x="208" y="80"/>
<use xlink:href="#p" x="208" y="96"/>
<use xlink:href="#p" x="208" y="120"/>
<use xlink:href="#p" x="208" y="128"/>
<use xlink:href="#p" x="208" y="144"/>
<use xlink:href="#p" x="208" y="160"/>
<use xlink:href="#p" x="208" y="192"/>
<use xlink:href="#p" x="208" y="208"/>
<use xlink:href="#p" x="208" y="224"/>
<use xlink:href="#p" x="208" y="232"/>
<use xlink:href="#p" x="208" y="240"/>
<use xlink:href="#p" x="208" y="288"/>
<use xlink:href="#p" x="208" y="296"/>
<use xlink:href="#p" x="208" y="312"/>
<use xlink:href="#p" x="208" y="320"/>
<use xlink:href="#p" x="208" y="336"/>
<use xlink:href="#p" x="208" y="352"/>
<use xlink:href="#p" x="208" y="360"/>
<use xlink:href="#p" x="208" y="368"/>
<use xlink:href="#p" x="208" y="384"/>
<use xlink:href="#p" x="216" y="32"/>
<use xlink:href="#p" x="216" y="40"/>
<use xlink:href="#p" x="216" y="64"/>
<use xlink:href="#p" x="216" y="96"/>
<use xlink:href="#p" x="216" y="104"/>
<use xlink:href="#p" x="216" y="112"/>
<use xlink:href="#p" x="216" y="160"/>
<use xlink:href="#p" x="216" y="168"/>
<use xlink:href="#p" x="216" y="192"/>
<use xlink:href="#p" x="216" y="224"/>
<use xlink:href="#p" x="216" y="232"/>
<use xlink:href="#p" x="216" y="248"/>
<use xlink:href="#p" x="216" y="256"/>
<use xlink:href="#p" x="216" y="264"/>
<use xlink:href="#p" x="216" y="272"/>
<use xlink:href="#p" x="216" y="280"/>
<use xlink:href="#p" x="216" y="296"/>
<use xlink:href="#p" x="216" y="320"/>
<use xlink:href="#p" x="216" y="352"/>
<use xlink:href="#p" x="216" y="360"/>
<use xlink:href="#p" x="216" y="368"/>
<use xlink:href="#p" x="224" y="56"/>
<use xlink:href="#p" x="224" y="64"/>
<use xlink:href="#p" x="224" y="72"/>
<use xlink:href="#p" x="224" y="80"/>
<use xlink:href="#p" x="224" y="88"/>
<use xlink:href="#p" x="224" y="96"/>
<use xlink:href="#p" x="224" y="128"/>
<use xlink:href="#p" x="224" y="136"/>
<use xlink:href="#p" x="224" y="168"/>
<use xlink:href="#p" x="224" y="176"/>
<use xlink:href="#p" x="224" y="192"/>
<use xlink:href="#p" x="224" y="200"/>
<use xlink:href="#p" x="224" y="208"/>
<use xlink:href="#p" x="224" y="216"/>
<use xlink:href="#p" x="224" y="224"/>
<use xlink:href="#p" x="224" y="240"/>
<use xlink:href="#p" x="224" y="248"/>
<use xlink:href="#p" x="224" y="288"/>
<use xlink:href="#p" x="224" y="296"/>
<use xlink:href="#p" x="224" y="304"/>
<use xlink:href="#p" x="224" y="320"/>
<use xlink:href="#p" x="224" y="328"/>
<use xlink:href="#p" x="224" y="336"/>
<use xlink:href="#p" x="224" y="344"/>
<use xlink:href="#p" x="224" y="352"/>
<use xlink:href="#p" x="224" y="376"/>
<use xlink:href="#p" x="232" y="48"/>
<use xlink:href="#p" x="232" y="64"/>
<use xlink:href="#p" x="232" y="88"/>
<use xlink:href="#p" x="232" y="112"/>
<use xlink:href="#p" x="232" y="120"/>
<use xlink:href="#p" x="232" y="136"/>
<use xlink:href="#p" x="232" y="144"/>
<use xlink:href="#p" x="232" y="200"/>
<use xlink:href="#p" x="232" y="208"/>
<use xlink:href="#p" x="232" y="224"/>
<use xlink:href="#p" x="232" y="248"/>
<use xlink:href="#p" x="232" y="256"/>
<use xlink:href="#p" x="232" y="280"/>
<use xlink:href="#p" x="232" y="288"/>
<use xlink:href="#p" x="232" y="296"/>
<use xlink:href="#p" x="232" y="328"/>
<use xlink:href="#p" x="232" y="336"/>
<use xlink:href="#p" x="232" y="360"/>
<use xlink:href="#p" x="232" y="376"/>
<use xlink:href="#p" x="240" y="64"/>
<use xlink:href="#p" x="240" y="80"/>
<use xlink:href="#p" x="240" y="136"/>
<use xlink:href="#p" x="240" y="160"/>
<use xlink:href="#p" x="240" y="176"/>
<use xlink:href="#p" x="240" y="184"/>
<use xlink:href="#p" x="240" y="208"/>
<use xlink:href="#p" x="240" y="232"/>
<use xlink:href="#p" x="240" y="240"/>
<use xlink:href="#p" x="240" y="256"/>
<use xlink:href="#p" x="240" y="280"/>
<use xlink:href="#p" x="240" y="288"/>
<use xlink:href="#p" x="240" y="312"/>
<use xlink:href="#p" x="240" y="328"/>
<use xlink:href="#p" x="240" y="368"/>
<use xlink:href="#p" x="240" y="384"/>
<use xlink:href="#p" x="248" y="40"/>
<use xlink:href="#p" x="248" y="56"/>
<use xlink:href="#p" x="248" y="64"/>
<use xlink:href="#p" x="248" y="72"/>
<use xlink:href="#p" x="248" y="96"/>
<use xlink:href="#p" x="248" y="136"/>
<use xlink:href="#p" x="248" y="192"/>
<use xlink:href="#p" x="248" y="216"/>
<use xlink:href="#p" x="248" y="224"/>
<use xlink:href="#p" x="248" y="240"/>
<use xlink:href="#p" x="248" y="256"/>
<use xlink:href="#p" x="248" y="264"/>
<use xlink:href="#p" x="248" y="272"/>
<use xlink:href="#p" x="248" y="280"/>
<use xlink:href="#p" x="248" y="296"/>
<use xlink:href="#p" x="248" y="312"/>
<use xlink:href="#p" x="248" y="320"/>
<use xlink:href="#p" x="248" y="360"/>
<use xlink:href="#p" x="248" y="368"/>
<use xlink:href="#p" x="248" y="376"/>
<use xlink:href="#p" x="256" y="64"/>
<use xlink:href="#p" x="256" y="80"/>
<use xlink:href="#p" x="256" y="88"/>
<use xlink:href="#p" x="256" y="96"/>
<use xlink:href="#p" x="256" y="104"/>
<use xlink:href="#p" x="256" y="120"/>
<use xlink:href="#p" x="256" y="144"/>
<use xlink:href="#p" x="256" y="152"/>
<use xlink:href="#p" x="256" y="192"/>
<use xlink:href="#p" x="256" y="200"/>
<use xlink:href="#p" x="256" y="240"/>
<use xlink:href="#p" x="256" y="264"/>
<use xlink:href="#p" x="256" y="272"/>
<use xlink:href="#p" x="256" y="280"/>
<use xlink:href="#p" x="256" y="288"/>
<use xlink:href="#p" x="256" y="296"/>
<use xlink:href="#p" x="256" y="336"/>
<use xlink:href="#p" x="256" y="344"/>
<use xlink:href="#p" x="256" y="360"/>
<use xlink:href="#p" x="256" y="376"/>
<use xlink:href="#p" x="256" y="384"/>
<use xlink:href="#p" x="264" y="48"/>
<use xlink:href="#p" x="264" y="88"/>
<use xlink:href="#p" x="264" y="96"/>
<use xlink:href="#p" x="264" y="120"/>
<use xlink:href="#p" x="264" y="128"/>
<use xlink:href="#p" x="264" y="144"/>
<use xlink:href="#p" x="264" y="176"/>
<use xlink:href="#p" x="264" y="200"/>
<use xlink:href="#p" x="264" y="208"/>
<use xlink:href="#p" x="264" y="216"/>
<use xlink:href="#p" x="264" y="232"/>
<use xlink:href="#p" x="264" y="240"/>
<use xlink:href="#p" x="264" y="248"/>
<use xlink:href="#p" x="264" y="272"/>
<use xlink:href="#p" x="264" y="288"/>
<use xlink:href="#p" x="264" y="312"/>
<use xlink:href="#p" x="264" y="328"/>
<use xlink:href="#p" x="264" y="336"/>
<use xlink:href="#p" x="264" y="352"/>
<use xlink:href="#p" x="264" y="360"/>
<use xlink:href="#p" x="264" y="376"/>
<use xlink:href="#p" x="272" y="32"/>
<use xlink:href="#p" x="272" y="40"/>
<use xlink:href="#p" x="272" y="48"/>
<use xlink:href="#p" x="272" y="72"/>
<use xlink:href="#p" x="272" y="80"/>
<use xlink:href="#p" x="272" y="104"/>
<use xlink:href="#p" x="272" y="112"/>
<use xlink:href="#p" x="272" y="128"/>
<use xlink:href="#p" x="272" y="144"/>
<use xlink:href="#p" x="272" y="152"/>
<use xlink:href="#p" x="272" y="160"/>
<use xlink:href="#p" x="272" y="200"/>
<use xlink:href="#p" x="272" y="208"/>
<use xlink:href="#p" x="272" y="240"/>
<use xlink:href="#p" x="272" y="256"/>
<use xlink:href="#p" x="272" y="296"/>
<use xlink:href="#p" x="272" y="304"/>
<use xlink:href="#p" x="272" y="336"/>
<use xlink:href="#p" x="280" y="48"/>
<use xlink:href="#p" x="280" y="56"/>
<use xlink:href="#p" x="280" y="72"/>
<use xlink:href="#p" x="280" y="88"/>
<use xlink:href="#p" x="280" y="96"/>
<use xlink:href="#p" x="280" y="120"/>
<use xlink:href="#p" x="280" y="136"/>
<use xlink:href="#p" x="280" y="144"/>
<use xlink:href="#p" x="280" y="152"/>
<use xlink:href="#p" x="280" y="160"/>
<use xlink:href="#p" x="280" y="184"/>
<use xlink:href="#p" x="280" y="200"/>
<use xlink:href="#p" x="280" y="208"/>
<use xlink:href="#p" x="280" y="216"/>
<use xlink:href="#p" x="280" y="224"/>
<use xlink:href="#p" x="280" y="240"/>
<use xlink:href="#p" x="280" y="256"/>
<use xlink:href="#p" x="280" y="272"/>
<use xlink:href="#p" x="280" y="280"/>
<use xlink:href="#p" x="280" y="304"/>
<use xlink:href="#p" x="280" y="312"/>
<use xlink:href="#p" x="280" y="320"/>
<use xlink:href="#p" x="280" y="328"/>
<use xlink:href="#p" x="280" y="360"/>
<use xlink:href="#p" x="288" y="40"/>
<use xlink:href="#p" x="288" y="64"/>
<use xlink:href="#p" x="288" y="80"/>
<use xlink:href="#p" x="288" y="120"/>
<use xlink:href="#p" x="288" y="160"/>
<use xlink:href="#p" x="288" y="176"/>
<use xlink:href="#p" x="288" y="208"/>
<use xlink:href="#p" x="288" y="232"/>
<use xlink:href="#p" x="288" y="248"/>
<use xlink:href="#p" x="288" y="256"/>
<use xlink:href="#p" x="288" y="272"/>
<use xlink:href="#p" x="288" y="280"/>
<use xlink:href="#p" x="288" y="296"/>
<use xlink:href="#p" x="288" y="312"/>
<use xlink:href="#p" x="288" y="336"/>
<use xlink:href="#p" x="288" y="344"/>
<use xlink:href="#p" x="288" y="352"/>
<use xlink:href="#p" x="288" y="360"/>
<use xlink:href="#p" x="296" y="64"/>
<use xlink:href="#p" x="296" y="88"/>
<use xlink:href="#p" x="296" y="96"/>
<use xlink:href="#p" x="296" y="112"/>
<use xlink:href="#p" x="296" y="136"/>
<use xlink:href="#p" x="296" y="176"/>
<use xlink:href="#p" x="296" y="184"/>
<use xlink:href="#p" x="296" y="192"/>
<use xlink:href="#p" x="296" y="208"/>
<use xlink:href="#p" x="296" y="216"/>
<use xlink:href="#p" x="296" y="224"/>
<use xlink:href="#p" x="296" y="232"/>
<use xlink:href="#p" x="296" y="248"/>
<use xlink:href="#p" x="296" y="256"/>
<use xlink:href="#p" x="296" y="272"/>
<use xlink:href="#p" x="296" y="320"/>
<use xlink:href="#p" x="296" y="328"/>
<use xlink:href="#p" x="296" y="344"/>
<use xlink:href="#p" x="296" y="352"/>
<use xlink:href="#p" x="296" y="360"/>
<use xlink:href="#p" x="296" y="368"/>
<use xlink:href="#p" x="296" y="376"/>
<use xlink:href="#p" x="296" y="384"/>
<use xlink:href="#p" x="304" y="64"/>
<use xlink:href="#p" x="304" y="80"/>
<use xlink:href="#p" x="304" y="88"/>
<use xlink:href="#p" x="304" y="120"/>
<use xlink:href="#p" x="304" y="128"/>
<use xlink:href="#p" x="304" y="160"/>
<use xlink:href="#p" x="304" y="168"/>
<use xlink:href="#p" x="304" y="176"/>
<use xlink:href="#p" x="304" y="184"/>
<use xlink:href="#p" x="304" y="208"/>
<use xlink:href="#p" x="304" y="224"/>
<use xlink:href="#p" x="304" y="240"/>
<use xlink:href="#p" x="304" y="256"/>
<use xlink:href="#p" x="304" y="264"/>
<use xlink:href="#p" x="304" y="272"/>
<use xlink:href="#p" x="304" y="312"/>
<use xlink:href="#p" x="304" y="336"/>
<use xlink:href="#p" x="304" y="352"/>
<use xlink:href="#p" x="304" y="360"/>
<use xlink:href="#p" x="312" y="40"/>
<use xlink:href="#p" x="312" y="48"/>
<use xlink:href="#p" x="312" y="56"/>
<use xlink:href="#p" x="312" y="64"/>
<use xlink:href="#p" x="312" y="88"/>
<use xlink:href="#p" x="312" y="104"/>
<use xlink:href="#p" x="312" y="120"/>
<use xlink:href="#p" x="312" y="128"/>
<use xlink:href="#p" x="312" y="144"/>
<use xlink:href="#p" x="312" y="160"/>
<use xlink:href="#p" x="312" y="168"/>
<use xlink:href="#p" x="312" y="200"/>
<use xlink:href="#p" x="312" y="224"/>
<use xlink:href="#p" x="312" y="232"/>
<use xlink:href="#p" x="312" y="240"/>
<use xlink:href="#p" x="312" y="248"/>
<use xlink:href="#p" x="312" y="256"/>
<use xlink:href="#p" x="312" y="264"/>
<use xlink:href="#p" x="312" y="280"/>
<use xlink:href="#p" x="312" y="296"/>
<use xlink:href="#p" x="312" y="304"/>
<use xlink:href="#p" x="312" y="328"/>
<use xlink:href="#p" x="312" y="336"/>
<use xlink:href="#p" x="312" y="352"/>
<use xlink:href="#p" x="312" y="360"/>
<use xlink:href="#p" x="320" y="32"/>
<use xlink:href="#p" x="320" y="56"/>
<use xlink:href="#p" x="320" y="64"/>
<use xlink:href="#p" x="320" y="80"/>
<use xlink:href="#p" x="320" y="104"/>
<use xlink:href="#p" x="320" y="112"/>
<use xlink:href="#p" x="320" y="152"/>
<use xlink:href="#p" x="320" y="184"/>
<use xlink:href="#p" x="320" y="192"/>
<use xlink:href="#p" x="320" y="200"/>
<use xlink:href="#p" x="320" y="208"/>
<use xlink:href="#p" x="320" y="216"/>
<use xlink:href="#p" x="320" y="224"/>
<use xlink:href="#p" x="320" y="232"/>
<use xlink:href="#p" x="320" y="248"/>
<use xlink:href="#p" x="320" y="272"/>
<use xlink:href="#p" x="320" y="280"/>
<use xlink:href="#p" x="320" y="288"/>
<use xlink:href="#p" x="320" y="304"/>
<use xlink:href="#p" x="320" y="312"/>
<use xlink:href="#p" x="320" y="320"/>
<use xlink:href="#p" x="320" y="328"/>
<use xlink:href="#p" x="320" y="336"/>
<use xlink:href="#p" x="320" y="344"/>
<use xlink:href="#p" x="320" y="352"/>
<use xlink:href="#p" x="320" y="360"/>
<use xlink:href="#p" x="320" y="368"/>
<use xlink:href="#p" x="328" y="96"/>
<use xlink:href="#p" x="328" y="112"/>
<use xlink:href="#p" x="328" y="120"/>
<use xlink:href="#p" x="328" y="168"/>
<use xlink:href="#p" x="328" y="176"/>
<use xlink:href="#p" x="328" y="184"/>
<use xlink:href="#p" x="328" y="192"/>
<use xlink:href="#p" x="328" y="224"/>
<use xlink:href="#p" x="328" y="232"/>
<use xlink:href="#p" x="328" y="240"/>
<use xlink:href="#p" x="328" y="248"/>
<use xlink:href="#p" x="328" y="280"/>
<use xlink:href="#p" x="328" y="288"/>
<use xlink:href="#p" x="328" y="296"/>
<use xlink:href="#p" x="328" y="320"/>
<use xlink:href="#p" x="328" y="352"/>
<use xlink:href="#p" x="328" y="376"/>
<use xlink:href="#p" x="328" y="384"/>
<use xlink:href="#p" x="336" y="32"/>
<use xlink:href="#p" x="336" y="40"/>
<use xlink:href="#p" x="336" y="48"/>
<use xlink:href="#p" x="336" y="56"/>
<use xlink:href="#p" x="336" y="64"/>
<use xlink:href="#p" x="336" y="72"/>
<use xlink:href="#p" x="336" y="80"/>
<use xlink:href="#p" x="336" y="128"/>
<use xlink:href="#p" x="336" y="136"/>
<use xlink:href="#p" x="336" y="144"/>
<use xlink:href="#p" x="336" y="160"/>
<use xlink:href="#p" x="336" y="176"/>
<use xlink:href="#p" x="336" y="184"/>
<use xlink:href="#p" x="336" y="192"/>
<use xlink:href="#p" x="336" y="208"/>
<use xlink:href="#p" x="336" y="224"/>
<use xlink:href="#p" x="336" y="232"/>
<use xlink:href="#p" x="336" y="248"/>
<use xlink:href="#p" x="336" y="256"/>
<use xlink:href="#p" x="336" y="288"/>
<use xlink:href="#p" x="336" y="304"/>
<use xlink:href="#p" x="336" y="312"/>
<use xlink:href="#p" x="336" y="320"/>
<use xlink:href="#p" x="336" y="336"/>
<use xlink:href="#p" x="336" y="352"/>
<use xlink:href="#p" x="336" y="376"/>
<use xlink:href="#p" x="344" y="32"/>
<use xlink:href="#p" x="344" y="80"/>
<use xlink:href="#p" x="344" y="104"/>
<use xlink:href="#p" x="344" y="120"/>
<use xlink:href="#p" x="344" y="176"/>
<use xlink:href="#p" x="344" y="192"/>
<use xlink:href="#p" x="344" y="224"/>
<use xlink:href="#p" x="344" y="232"/>
<use xlink:href="#p" x="344" y="248"/>
<use xlink:href="#p" x="344" y="256"/>
<use xlink:href="#p" x="344" y="280"/>
<use xlink:href="#p" x="344" y="288"/>
<use xlink:href="#p" x="344" y="296"/>
<use xlink:href="#p" x="344" y="320"/>
<use xlink:href="#p" x="344" y="352"/>
<use xlink:href="#p" x="344" y="360"/>
<use xlink:href="#p" x="344" y="368"/>
<use xlink:href="#p" x="344" y="384"/>
<use xlink:href="#p" x="352" y="32"/>
<use xlink:href="#p" x="352" y="48"/>
<use xlink:href="#p" x="352" y="56"/>
<use xlink:href="#p" x="352" y="64"/>
<use xlink:href="#p" x="352" y="80"/>
<use xlink:href="#p" x="352" y="96"/>
<use xlink:href="#p" x="352" y="120"/>
<use xlink:href="#p" x="352" y="136"/>
<use xlink:href="#p" x="352" y="144"/>
<use xlink:href="#p" x="352" y="152"/>
<use xlink:href="#p" x="352" y="168"/>
<use xlink:href="#p" x="352" y="176"/>
<use xlink:href="#p" x="352" y="192"/>
<use xlink:href="#p" x="352" y="200"/>
<use xlink:href="#p" x="352" y="208"/>
<use xlink:href="#p" x="352" y="216"/>
<use xlink:href="#p" x="352" y="224"/>
<use xlink:href="#p" x="352" y="256"/>
<use xlink:href="#p" x="352" y="264"/>
<use xlink:href="#p" x="352" y="312"/>
<use xlink:href="#p" x="352" y="320"/>
<use xlink:href="#p" x="352" y="328"/>
<use xlink:href="#p" x="352" y="336"/>
<use xlink:href="#p" x="352" y="344"/>
<use xlink:href="#p" x="352" y="352"/>
<use xlink:href="#p" x="352" y="376"/>
<use xlink:href="#p" x="352" y="384"/>
<use xlink:href="#p" x="360" y="32"/>
<use xlink:href="#p" x="360" y="48"/>
<use xlink:href="#p" x="360" y="56"/>
<use xlink:href="#p" x="360" y="64"/>
<use xlink:href="#p" x="360" y="80"/>
<use xlink:href="#p" x="360" y="96"/>
<use xlink:href="#p" x="360" y="128"/>
<use xlink:href="#p" x="360" y="136"/>
<use xlink:href="#p" x="360" y="184"/>
<use xlink:href="#p" x="360" y="192"/>
<use xlink:href="#p" x="360" y="208"/>
<use xlink:href="#p" x="360" y="224"/>
<use xlink:href="#p" x="360" y="272"/>
<use xlink:href="#p" x="360" y="280"/>
<use xlink:href="#p" x="360" y="288"/>
<use xlink:href="#p" x="360" y="296"/>
<use xlink:href="#p" x="360" y="320"/>
<use xlink:href="#p" x="360" y="328"/>
<use xlink:href="#p" x="360" y="376"/>
<use xlink:href="#p" x="360" y="384"/>
<use xlink:href="#p" x="368" y="32"/>
<use xlink:href="#p" x="368" y="48"/>
<use xlink:href="#p" x="368" y="56"/>
<use xlink:href="#p" x="368" y="64"/>
<use xlink:href="#p" x="368" y="80"/>
<use xlink:href="#p" x="368" y="96"/>
<use xlink:href="#p" x="368" y="144"/>
<use xlink:href="#p" x="368" y="152"/>
<use xlink:href="#p" x="368" y="160"/>
<use xlink:href="#p" x="368" y="168"/>
<use xlink:href="#p" x="368" y="176"/>
<use xlink:href="#p" x="368" y="192"/>
<use xlink:href="#p" x="368" y="200"/>
<use xlink:href="#p" x="368" y="240"/>
<use xlink:href="#p" x="368" y="248"/>
<use xlink:href="#p" x="368" y="256"/>
<use xlink:href="#p" x="368" y="272"/>
<use xlink:href="#p" x="368" y="288"/>
<use xlink:href="#p" x="368" y="296"/>
<use xlink:href="#p" x="368" y="336"/>
<use xlink:href="#p" x="368" y="344"/>
<use xlink:href="#p" x="368" y="352"/>
<use xlink:href="#p" x="368" y="360"/>
<use xlink:href="#p" x="368" y="368"/>
<use xlink:href="#p" x="368" y="384"/>
<use xlink:href="#p" x="376" y="32"/>
<use xlink:href="#p" x="376" y="80"/>
<use xlink:href="#p" x="376" y="104"/>
<use xlink:href="#p" x="376" y="120"/>
<use xlink:href="#p" x="376" y="136"/>
<use xlink:href="#p" x="376" y="144"/>
<use xlink:href="#p" x="376" y="152"/>
<use xlink:href="#p" x="376" y="192"/>
<use xlink:href="#p" x="376" y="200"/>
<use xlink:href="#p" x="376" y="216"/>
<use xlink:href="#p" x="376" y="232"/>
<use xlink:href="#p" x="376" y="240"/>
<use xlink:href="#p" x="376" y="280"/>
<use xlink:href="#p" x="376" y="288"/>
<use xlink:href="#p" x="376" y="296"/>
<use xlink:href="#p" x="376" y="312"/>
<use xlink:href="#p" x="376" y="328"/>
<use xlink:href="#p" x="376" y="336"/>
<use xlink:href="#p" x="376" y="344"/>
<use xlink:href="#p" x="376" y="352"/>
<use xlink:href="#p" x="384" y="32"/>
<use xlink:href="#p" x="384" y="40"/>
<use xlink:href="#p" x="384" y="48"/>
<use xlink:href="#p" x="384" y="56"/>
<use xlink:href="#p" x="384" y="64"/>
<use xlink:href="#p" x="384" y="72"/>
<use xlink:href="#p" x="384" y="80"/>
<use xlink:href="#p" x="384" y="96"/>
<use xlink:href="#p" x="384" y="104"/>
<use xlink:href="#p" x="384" y="112"/>
<use xlink:href="#p" x="384" y="152"/>
<use xlink:href="#p" x="384" y="160"/>
<use xlink:href="#p" x="384" y="168"/>
<use xlink:href="#p" x="384" y="184"/>
<use xlink:href="#p" x="384" y="200"/>
<use xlink:href="#p" x="384" y="208"/>
<use xlink:href="#p" x="384" y="256"/>
<use xlink:href="#p" x="384" y="264"/>
<use xlink:href="#p" x="384" y="296"/>
<use xlink:href="#p" x="384" y="304"/>
<use xlink:href="#p" x="384" y="312"/>
<use xlink:href="#p" x="384" y="320"/>
<use xlink:href="#p" x="384" y="352"/>
<use xlink:href="#p" x="384" y="368"/>
<use xlink:href="#p" x="384" y="376"/>
</g>
<g></g></svg>