<svg viewBox="0 0 47.999999 47.999999" version="1.1" width="48" height="48" xmlns="http://www.w3.org/2000/svg" xmlns:svg="http://www.w3.org/2000/svg"><path d="m 37.212736,36.519836 a 6.8957697,6.8957697 0 0 1 -4.906519,-2.025174 l -7.087361,-7.09185 a 1.3471224,1.3471224 0 0 0 -1.862022,0 l -7.11131,7.111308 a 6.8987632,6.8987632 0 0 1 -4.906518,2.031162 H 9.9514702 l 8.9808148,8.980816 a 7.1846526,7.1846526 0 0 0 10.149819,0 l 8.998777,-9.000275 z" fill="#32BCAD"/><path d="m 11.340503,11.457373 a 6.8972665,6.8972665 0 0 1 4.906518,2.03116 l 7.11131,7.112807 a 1.318683,1.318683 0 0 0 1.862022,0 l 7.085864,-7.085865 a 6.8852919,6.8852919 0 0 1 4.906519,-2.032657 h 0.853176 L 29.067136,2.4840405 a 7.1756718,7.1756718 0 0 0 -10.149819,0 L 9.9514702,11.457373 Z" fill="#32BCAD"/><path d="M 45.509513,18.927915 40.071628,13.49003 a 1.0477618,1.0477618 0 0 1 -0.386174,0.07783 h -2.472718 a 4.8825701,4.8825701 0 0 0 -3.43217,1.421959 l -7.085862,7.081373 a 3.4037292,3.4037292 0 0 1 -4.809227,0 l -7.112806,-7.10831 A 4.8825701,4.8825701 0 0 0 11.340503,13.539424 H 8.3049864 a 1.0657234,1.0657234 0 0 1 -0.3652196,-0.07334 l -5.4723103,5.461833 a 7.1846526,7.1846526 0 0 0 0,10.149818 l 5.4603358,5.460331 a 1.0253097,1.0253097 0 0 1 0.3652196,-0.07335 h 3.0474911 a 4.884067,4.884067 0 0 0 3.432168,-1.423458 l 7.111309,-7.11131 c 1.285754,-1.284256 3.526467,-1.284256 4.810724,0 l 7.085862,7.084367 a 4.8825701,4.8825701 0 0 0 3.43217,1.421962 h 2.472718 a 1.0327938,1.0327938 0 0 1 0.386174,0.07783 l 5.437885,-5.437885 a 7.1756718,7.1756718 0 0 0 0,-10.149818" fill="#32BCAD"/></svg>